<svg xmlns="http://www.w3.org/2000/svg" width="320" height="240" viewBox="0 0 320 240" fill="none">
  <!-- Spider logo: transparent background -->
  <g stroke="#FFFFFF" stroke-width="10" stroke-linecap="round" stroke-linejoin="round" fill="none">
    <!-- top left outer -->
    <path d="M82 88
             C72 76, 72 58, 72 44
             C72 28, 62 22, 50 22"></path>
    <!-- top left inner -->
    <path d="M104 92
             C92 78, 92 58, 92 42
             C92 28, 98 20, 110 20"></path>

    <!-- top right inner -->
    <path d="M216 92
             C228 78, 228 58, 228 42
             C228 28, 222 20, 210 20"></path>
    <!-- top right outer -->
    <path d="M238 88
             C248 76, 248 58, 248 44
             C248 28, 258 22, 270 22"></path>

    <!-- bottom left outer -->
    <path d="M82 152
             C72 164, 72 182, 72 196
             C72 212, 62 218, 50 218"></path>
    <!-- bottom left inner -->
    <path d="M104 148
             C92 162, 92 182, 92 198
             C92 212, 98 220, 110 220"></path>

    <!-- bottom right inner -->
    <path d="M216 148
             C228 162, 228 182, 228 198
             C228 212, 222 220, 210 220"></path>
    <!-- bottom right outer -->
    <path d="M238 152
             C248 164, 248 182, 248 196
             C248 212, 258 218, 270 218"></path>
  </g>

  <!-- body -->
  <rect x="92" y="92" width="136" height="56" rx="22" fill="none" stroke="#FFFFFF" stroke-width="10"></rect>

  <!-- left eye cluster: keyboard-like keys -->
  <g fill="#FFFFFF">
    <rect x="124" y="104" width="8" height="8" rx="1.6"></rect>
    <rect x="114" y="114" width="8" height="8" rx="1.6"></rect>
    <rect x="124" y="114" width="8" height="8" rx="1.6"></rect>
    <rect x="134" y="114" width="8" height="8" rx="1.6"></rect>
  </g>

  <!-- right eye cluster: keyboard-like keys -->
  <g fill="#FFFFFF">
    <rect x="184" y="104" width="8" height="8" rx="1.6"></rect>
    <rect x="174" y="114" width="8" height="8" rx="1.6"></rect>
    <rect x="184" y="114" width="8" height="8" rx="1.6"></rect>
    <rect x="194" y="114" width="8" height="8" rx="1.6"></rect>
  </g>
</svg>